<svg width="144" height="52" viewBox="0 0 144 52" fill="none" xmlns="http://www.w3.org/2000/svg">
<rect width="144" height="51" fill="#E1E1E1"/>
<path d="M46.5446 47.0486L24.8513 16.2975C24.3618 15.6035 24.8582 14.646 25.7074 14.6462L69.1042 14.6533C69.9535 14.6535 70.4495 15.6111 69.9598 16.3049L48.2563 47.0489C47.8389 47.6402 46.9618 47.64 46.5446 47.0486Z" stroke="#00A79D" stroke-width="3.6"/>
<path d="M35 28.7204C50 21.5 96.5 33 115 30.0381V33H35V28.7204Z" fill="#00A79D"/>
<path d="M43.8511 25.1823H40.7379V22.4031H50.5484V25.1823H47.4352V33.0338H43.8511V25.1823ZM54.4898 25.6227C55.0973 24.9241 55.9933 24.5748 57.1778 24.5748V27.6121C56.9045 27.5716 56.6514 27.5514 56.4185 27.5514C55.2441 27.5514 54.6569 28.1487 54.6569 29.3434V33.0338H51.2247V24.7267H54.4898V25.6227ZM61.7972 24.5748C63.2551 24.5748 64.3688 24.9039 65.1382 25.562C65.9077 26.2099 66.2924 27.2122 66.2924 28.5689V33.0338H63.1032V31.9403C62.7084 32.7705 61.9237 33.1856 60.7493 33.1856C60.0912 33.1856 59.5293 33.0743 59.0636 32.8515C58.608 32.6187 58.2587 32.3099 58.0157 31.9251C57.7828 31.5303 57.6664 31.0899 57.6664 30.6039C57.6664 29.7838 57.9803 29.1612 58.608 28.7359C59.2357 28.3107 60.1874 28.0981 61.4631 28.0981H62.845C62.7337 27.4502 62.2123 27.1262 61.2808 27.1262C60.9062 27.1262 60.5265 27.1869 60.1418 27.3084C59.7571 27.4198 59.4281 27.5767 59.1547 27.7792L58.0613 25.5164C58.5371 25.2228 59.1091 24.995 59.7773 24.833C60.4557 24.6609 61.1289 24.5748 61.7972 24.5748ZM61.782 31.1202C62.025 31.1202 62.2426 31.0544 62.435 30.9228C62.6274 30.7912 62.7691 30.5938 62.8602 30.3305V29.7534H62.0098C61.3112 29.7534 60.9619 29.9863 60.9619 30.452C60.9619 30.6444 61.0328 30.8064 61.1745 30.938C61.3264 31.0595 61.5289 31.1202 61.782 31.1202ZM71.0256 33.1856C70.3169 33.1856 69.6183 33.1097 68.9299 32.9578C68.2414 32.806 67.6846 32.6085 67.2593 32.3655L68.2009 30.1027C68.5856 30.3356 69.0412 30.5178 69.5677 30.6495C70.0942 30.7811 70.6055 30.8469 71.1016 30.8469C71.4964 30.8469 71.7698 30.8165 71.9216 30.7558C72.0836 30.6849 72.1646 30.5836 72.1646 30.452C72.1646 30.3204 72.0634 30.2293 71.8609 30.1787C71.6685 30.1281 71.3496 30.0774 70.9041 30.0268C70.2258 29.9458 69.6487 29.8446 69.1729 29.7231C68.697 29.5915 68.2768 29.3434 67.9124 28.9789C67.558 28.6145 67.3808 28.093 67.3808 27.4147C67.3808 26.8781 67.5428 26.3972 67.8668 25.972C68.1908 25.5468 68.6717 25.2076 69.3095 24.9545C69.9575 24.7014 70.732 24.5748 71.6331 24.5748C72.2608 24.5748 72.8733 24.6356 73.4707 24.7571C74.0781 24.8684 74.5945 25.0355 75.0197 25.2582L74.0781 27.521C73.3492 27.116 72.5493 26.9136 71.6786 26.9136C70.9294 26.9136 70.5548 27.0452 70.5548 27.3084C70.5548 27.44 70.6561 27.5362 70.8586 27.597C71.0611 27.6476 71.38 27.6982 71.8153 27.7488C72.4937 27.8298 73.0657 27.9361 73.5314 28.0677C74.0073 28.1994 74.4224 28.4474 74.7767 28.8119C75.1412 29.1764 75.3234 29.6978 75.3234 30.3761C75.3234 30.8924 75.1614 31.3632 74.8375 31.7885C74.5135 32.2137 74.0275 32.5528 73.3795 32.806C72.7316 33.0591 71.9469 33.1856 71.0256 33.1856ZM82.1335 24.5748C83.1561 24.5748 83.9762 24.8836 84.5938 25.5012C85.2215 26.1188 85.5353 27.0502 85.5353 28.2955V33.0338H82.1032V28.8878C82.1032 27.9361 81.764 27.4603 81.0857 27.4603C80.7009 27.4603 80.3871 27.597 80.1441 27.8703C79.9112 28.1335 79.7948 28.5537 79.7948 29.1308V33.0338H76.3626V21.7653H79.7948V25.3949C80.4326 24.8482 81.2122 24.5748 82.1335 24.5748ZM89.4405 25.1823H86.3273V22.4031H96.1378V25.1823H93.0246V33.0338H89.4405V25.1823ZM100.298 24.5748C101.755 24.5748 102.869 24.9039 103.639 25.562C104.408 26.2099 104.793 27.2122 104.793 28.5689V33.0338H101.604V31.9403C101.209 32.7705 100.424 33.1856 99.2497 33.1856C98.5916 33.1856 98.0297 33.0743 97.5639 32.8515C97.1083 32.6187 96.7591 32.3099 96.5161 31.9251C96.2832 31.5303 96.1668 31.0899 96.1668 30.6039C96.1668 29.7838 96.4806 29.1612 97.1083 28.7359C97.7361 28.3107 98.6878 28.0981 99.9634 28.0981H101.345C101.234 27.4502 100.713 27.1262 99.7812 27.1262C99.4066 27.1262 99.0269 27.1869 98.6422 27.3084C98.2575 27.4198 97.9284 27.5767 97.6551 27.7792L96.5616 25.5164C97.0375 25.2228 97.6095 24.995 98.2777 24.833C98.956 24.6609 99.6293 24.5748 100.298 24.5748ZM100.282 31.1202C100.525 31.1202 100.743 31.0544 100.935 30.9228C101.128 30.7912 101.269 30.5938 101.361 30.3305V29.7534H100.51C99.8116 29.7534 99.4623 29.9863 99.4623 30.452C99.4623 30.6444 99.5331 30.8064 99.6749 30.938C99.8267 31.0595 100.029 31.1202 100.282 31.1202ZM115.703 24.7267V31.3784C115.703 32.9578 115.263 34.1424 114.382 34.9321C113.511 35.7319 112.266 36.1318 110.646 36.1318C109.816 36.1318 109.042 36.0407 108.323 35.8585C107.604 35.6863 106.991 35.4332 106.485 35.0991L107.639 32.7604C107.963 33.0034 108.373 33.2008 108.869 33.3527C109.366 33.5045 109.841 33.5805 110.297 33.5805C110.985 33.5805 111.487 33.4337 111.8 33.1401C112.114 32.8465 112.271 32.4162 112.271 31.8492V31.6973C111.755 32.2845 110.99 32.5782 109.978 32.5782C109.269 32.5782 108.606 32.4162 107.989 32.0922C107.381 31.7581 106.895 31.2873 106.531 30.6798C106.166 30.0622 105.984 29.3586 105.984 28.5689C105.984 27.7792 106.166 27.0806 106.531 26.4731C106.895 25.8657 107.381 25.4 107.989 25.076C108.606 24.7419 109.269 24.5748 109.978 24.5748C111.112 24.5748 111.932 24.9393 112.438 25.6683V24.7267H115.703ZM110.889 29.9053C111.294 29.9053 111.628 29.7838 111.892 29.5408C112.165 29.2877 112.302 28.9637 112.302 28.5689C112.302 28.174 112.165 27.8551 111.892 27.6121C111.628 27.3692 111.294 27.2477 110.889 27.2477C110.474 27.2477 110.13 27.3692 109.857 27.6121C109.593 27.8551 109.462 28.174 109.462 28.5689C109.462 28.9637 109.598 29.2877 109.872 29.5408C110.145 29.7838 110.484 29.9053 110.889 29.9053Z" fill="white"/>
</svg>
